<?xml version="1.0" encoding="UTF-8" standalone="no"?>
<svg
   xmlns:dc="http://purl.org/dc/elements/1.1/"
   xmlns:cc="http://creativecommons.org/ns#"
   xmlns:rdf="http://www.w3.org/1999/02/22-rdf-syntax-ns#"
   xmlns:svg="http://www.w3.org/2000/svg"
   xmlns="http://www.w3.org/2000/svg"
   xmlns:xlink="http://www.w3.org/1999/xlink"
   xmlns:sodipodi="http://sodipodi.sourceforge.net/DTD/sodipodi-0.dtd"
   xmlns:inkscape="http://www.inkscape.org/namespaces/inkscape"
   width="209.71744mm"
   height="34.01136mm"
   viewBox="0 0 209.71744 34.01136"
   version="1.1"
   id="svg934"
   inkscape:version="1.0.1 (0767f8302a, 2020-10-17)"
   sodipodi:docname="transition2.svg">
  <defs
     id="defs928">
    <clipPath
       clipPathUnits="userSpaceOnUse"
       id="clipPath878">
      <g
         inkscape:label="Clip"
         id="use880">
        <path
           id="path1596"
           style="fill:#007b5f;fill-opacity:1;fill-rule:evenodd;stroke-width:1;stroke-linejoin:round;paint-order:stroke fill markers"
           d="m 205.02315,194.85235 c -1.46631,-0.63111 -2.91943,-1.24308 -4.34599,-1.81849 -1.58262,-0.63836 -3.14096,-1.24294 -4.67619,-1.81488 -1.53524,-0.57194 -3.04719,-1.11125 -4.53668,-1.61902 -1.48949,-0.50778 -2.95643,-0.98404 -4.4018,-1.42989 -1.44537,-0.44585 -2.8692,-0.8613 -4.27209,-1.24747 -1.40289,-0.38617 -2.785,-0.74304 -4.14703,-1.07177 -1.36203,-0.32873 -2.70382,-0.62924 -4.02663,-0.90279 -1.32281,-0.27354 -2.62669,-0.52044 -3.91191,-0.74104 -1.28521,-0.2206 -2.55206,-0.41507 -3.80131,-0.58498 -1.24927,-0.1699 -2.48046,-0.31521 -3.69539,-0.43666 -1.21492,-0.12145 -2.41341,-0.21932 -3.59564,-0.29456 -2.36446,-0.15047 -4.66517,-0.21053 -6.90862,-0.18965 -2.24346,0.0209 -4.42948,0.12286 -6.56498,0.29714 -2.13551,0.17428 -4.22051,0.42098 -6.26112,0.73071 -2.0406,0.30972 -4.03673,0.68229 -5.99549,1.10949 -1.95878,0.4272 -3.88024,0.90886 -5.7702,1.43557 -1.88997,0.52671 -3.74839,1.0986 -5.5826,1.70687 -1.83423,0.60827 -3.64431,1.25309 -5.43586,1.92495 -1.79152,0.67186 -3.5649,1.37076 -5.32679,2.08825 -3.52379,1.43498 -7.0011,2.94323 -10.48463,4.45296 -3.483541,1.50972 -6.973128,3.02096 -10.520817,4.46174 -1.773851,0.72039 -3.5623,1.4234 -5.371769,2.0996 -1.809462,0.67621 -3.63972,1.32586 -5.497852,1.93994 -1.858134,0.61407 -3.743883,1.19254 -5.663737,1.72651 -1.919856,0.53397 -3.874267,1.02343 -5.868892,1.45934 -1.994625,0.43591 -4.029837,0.81803 -6.11229,1.13791 -2.082451,0.31988 -4.212146,0.57737 -6.395474,0.76326 -2.183326,0.1859 -4.420166,0.30041 -6.717422,0.33436 -2.297252,0.0339 -4.65492,-0.0129 -7.079154,-0.14884 -1.212115,-0.068 -2.440805,-0.15799 -3.687112,-0.27182 -1.246309,-0.11383 -2.509885,-0.25149 -3.792016,-0.41341 -1.282131,-0.16192 -2.582503,-0.34843 -3.902088,-0.56069 -1.319586,-0.21225 -2.658656,-0.44984 -4.017325,-0.71468 -1.358673,-0.26484 -2.737311,-0.55677 -4.1367,-0.87643 -1.399389,-0.31967 -2.819499,-0.66713 -4.261239,-1.04387 -1.441737,-0.37673 -2.904709,-0.78248 -4.39043,-1.21853 -1.485719,-0.43605 -2.993973,-0.9023 -4.5253048,-1.39991 -1.531331,-0.49762 -3.08574,-1.0266 -4.664315,-1.58801 -1.578574,-0.56142 -3.181559,-1.15536 -4.80900805,-1.78284 -1.49817795,-0.57763 -3.02262195,-1.19132 -4.56354595,-1.82676 v 15.305 H 205.02315 Z" />
        <path
           id="path1598"
           style="fill:#87b9b2;fill-opacity:1;fill-rule:evenodd;stroke-width:1;stroke-linejoin:round;paint-order:stroke fill markers"
           d="m -4.6942908,179.81761 v 18.70635 c 1.540924,0.63544 3.065368,1.24913 4.56354595,1.82676 1.62744905,0.62748 3.23043405,1.22142 4.80900805,1.78284 1.578575,0.56141 3.132984,1.09039 4.664315,1.58801 1.5313318,0.49761 3.0395858,0.96386 4.5253048,1.39991 1.485721,0.43605 2.948693,0.8418 4.39043,1.21853 1.44174,0.37674 2.86185,0.7242 4.261239,1.04387 1.399389,0.31966 2.778027,0.61159 4.1367,0.87643 1.358669,0.26484 2.697739,0.50243 4.017325,0.71468 1.319585,0.21226 2.619957,0.39877 3.902088,0.56069 1.282131,0.16192 2.545707,0.29958 3.792016,0.41341 1.246307,0.11383 2.474997,0.20384 3.687112,0.27182 2.424234,0.13597 4.781902,0.18278 7.079154,0.14884 2.297256,-0.0339 4.534096,-0.14846 6.717422,-0.33436 2.183328,-0.18589 4.313023,-0.44338 6.395474,-0.76326 2.082453,-0.31988 4.117665,-0.702 6.11229,-1.13791 1.994625,-0.43591 3.949036,-0.92537 5.868892,-1.45934 1.919854,-0.53397 3.805603,-1.11244 5.663737,-1.72651 1.858132,-0.61408 3.68839,-1.26373 5.497852,-1.93994 1.809469,-0.6762 3.597918,-1.37921 5.371769,-2.0996 3.547689,-1.44078 7.037276,-2.95202 10.520817,-4.46174 3.48353,-1.50973 6.96084,-3.01798 10.48463,-4.45296 1.76189,-0.71749 3.53527,-1.41639 5.32679,-2.08825 1.79155,-0.67186 3.60163,-1.31668 5.43586,-1.92495 1.83421,-0.60827 3.69263,-1.18016 5.5826,-1.70687 1.88996,-0.52671 3.81142,-1.00837 5.7702,-1.43557 1.95876,-0.4272 3.95489,-0.79977 5.99549,-1.10949 2.04061,-0.30973 4.12561,-0.55643 6.26112,-0.73071 2.1355,-0.17428 4.32152,-0.27625 6.56498,-0.29714 2.24345,-0.0209 4.54416,0.0392 6.90862,0.18965 1.18223,0.0752 2.38072,0.17311 3.59564,0.29456 1.21493,0.12145 2.44612,0.26676 3.69539,0.43666 1.24925,0.16991 2.5161,0.36438 3.80131,0.58498 1.28522,0.2206 2.5891,0.4675 3.91191,0.74104 1.32281,0.27355 2.6646,0.57406 4.02663,0.90279 1.36203,0.32873 2.74414,0.6856 4.14703,1.07177 1.40289,0.38617 2.82672,0.80162 4.27209,1.24747 1.44537,0.44585 2.91231,0.92211 4.4018,1.42989 1.48949,0.50777 3.00144,1.04708 4.53668,1.61902 1.53523,0.57194 3.09357,1.17652 4.67619,1.81488 1.42656,0.57541 2.87968,1.18738 4.34599,1.81849 v -15.03474 z" />
      </g>
    </clipPath>
    <clipPath
       clipPathUnits="userSpaceOnUse"
       id="clipPath868">
      <use
         x="0"
         y="0"
         xlink:href="#g864"
         id="use870"
         width="100%"
         height="100%" />
    </clipPath>
  </defs>
  <sodipodi:namedview
     id="base"
     pagecolor="#ffffff"
     bordercolor="#666666"
     borderopacity="1.0"
     inkscape:pageopacity="0.0"
     inkscape:pageshadow="2"
     inkscape:zoom="0.35"
     inkscape:cx="483.07119"
     inkscape:cy="186.45997"
     inkscape:document-units="mm"
     inkscape:current-layer="layer1"
     inkscape:document-rotation="0"
     showgrid="false"
     inkscape:window-width="1439"
     inkscape:window-height="1050"
     inkscape:window-x="199"
     inkscape:window-y="0"
     inkscape:window-maximized="0" />
  <metadata
     id="metadata931">
    <rdf:RDF>
      <cc:Work
         rdf:about="">
        <dc:format>image/svg+xml</dc:format>
        <dc:type
           rdf:resource="http://purl.org/dc/dcmitype/StillImage" />
        <dc:title></dc:title>
      </cc:Work>
    </rdf:RDF>
  </metadata>
  <g
     inkscape:label="Layer 1"
     inkscape:groupmode="layer"
     id="layer1"
     transform="translate(21.979252,-98.832467)">
    <g
       id="g866"
       clip-path="url(#clipPath868)"
       transform="translate(-17.211229,-28.731103)">
      <g
         inkscape:label="Clip"
         id="g864">
        <path
           id="rect11917-0-3"
           style="fill:#87b9b2;fill-opacity:1;fill-rule:evenodd;stroke-width:1;stroke-linejoin:round;paint-order:stroke fill markers"
           d="m 204.94942,142.59831 c -1.46631,-0.63111 -2.91943,-1.24308 -4.34599,-1.81849 -1.58262,-0.63836 -3.14096,-1.24294 -4.67619,-1.81488 -1.53524,-0.57194 -3.04719,-1.11125 -4.53668,-1.61902 -1.48949,-0.50777 -2.95643,-0.98404 -4.4018,-1.42988 -1.44537,-0.44585 -2.8692,-0.86131 -4.27209,-1.24747 -1.40289,-0.38617 -2.785,-0.74304 -4.14703,-1.07177 -1.36203,-0.32873 -2.70382,-0.62925 -4.02663,-0.90279 -1.32281,-0.27354 -2.62669,-0.52044 -3.91191,-0.74104 -1.28521,-0.2206 -2.55206,-0.41508 -3.80131,-0.58498 -1.24927,-0.1699 -2.48046,-0.31521 -3.69539,-0.43666 -1.21492,-0.12145 -2.41341,-0.21932 -3.59564,-0.29456 -2.36446,-0.15048 -4.66517,-0.21053 -6.90862,-0.18965 -2.24346,0.0209 -4.42948,0.12285 -6.56498,0.29714 -2.13551,0.17428 -4.22051,0.42098 -6.26112,0.7307 -2.0406,0.30973 -4.03673,0.6823 -5.99549,1.1095 -1.95878,0.4272 -3.88024,0.90885 -5.7702,1.43557 -1.88997,0.52671 -3.74839,1.0986 -5.5826,1.70687 -1.83423,0.60827 -3.64431,1.25309 -5.43586,1.92495 -1.79152,0.67186 -3.5649,1.37075 -5.32679,2.08824 -3.52379,1.43498 -7.0011,2.94323 -10.48463,4.45296 -3.483544,1.50972 -6.973134,3.02096 -10.520814,4.46174 -1.77386,0.72039 -3.5623,1.4234 -5.37177,2.09961 -1.80947,0.67621 -3.639724,1.32586 -5.497856,1.93994 -1.858134,0.61407 -3.743883,1.19254 -5.663737,1.72651 -1.919856,0.53397 -3.874267,1.02343 -5.868892,1.45934 -1.994625,0.43591 -4.029837,0.81803 -6.11229,1.13791 -2.082451,0.31988 -4.212146,0.57737 -6.395474,0.76326 -2.183326,0.1859 -4.420166,0.30041 -6.717422,0.33435 -2.297252,0.0339 -4.65492,-0.0129 -7.079154,-0.14883 -1.212115,-0.068 -2.440805,-0.15799 -3.687112,-0.27182 -1.246309,-0.11383 -2.509885,-0.25149 -3.792016,-0.41341 -1.282131,-0.16192 -2.582503,-0.34843 -3.902088,-0.56069 -1.319586,-0.21225 -2.658656,-0.44984 -4.017325,-0.71468 -1.358673,-0.26484 -2.737311,-0.55677 -4.1367,-0.87643 -1.399389,-0.31967 -2.819499,-0.66713 -4.261239,-1.04387 -1.441737,-0.37673 -2.904709,-0.78248 -4.39043,-1.21853 -1.485719,-0.43605 -2.993973,-0.9023 -4.5253049,-1.39991 -1.531331,-0.49762 -3.08574,-1.0266 -4.664314,-1.58802 -1.578574,-0.56142 -3.18156,-1.15536 -4.80900902,-1.78284 -1.49817798,-0.57763 -3.02262198,-1.19132 -4.56354598,-1.82676 v 15.30501 H 204.94942 Z" />
        <path
           id="path11979-9-6"
           style="fill:#edf6f9;fill-opacity:1;fill-rule:evenodd;stroke-width:1;stroke-linejoin:round;paint-order:stroke fill markers"
           d="m -4.7680229,127.56357 v 18.70635 c 1.540924,0.63544 3.065368,1.24913 4.56354598,1.82676 1.62744902,0.62748 3.23043502,1.22142 4.80900902,1.78284 1.578574,0.56142 3.132983,1.0904 4.664314,1.58802 1.5313319,0.49761 3.0395859,0.96386 4.5253049,1.39991 1.485721,0.43605 2.948693,0.8418 4.39043,1.21853 1.44174,0.37674 2.86185,0.7242 4.261239,1.04387 1.399389,0.31966 2.778027,0.61159 4.1367,0.87643 1.358669,0.26484 2.697739,0.50243 4.017325,0.71468 1.319585,0.21226 2.619957,0.39877 3.902088,0.56069 1.282131,0.16192 2.545707,0.29958 3.792016,0.41341 1.246307,0.11383 2.474997,0.20384 3.687112,0.27182 2.424234,0.13597 4.781902,0.18278 7.079154,0.14883 2.297256,-0.0339 4.534096,-0.14845 6.717422,-0.33435 2.183328,-0.18589 4.313023,-0.44338 6.395474,-0.76326 2.082453,-0.31988 4.117665,-0.702 6.11229,-1.13791 1.994625,-0.43591 3.949036,-0.92537 5.868892,-1.45934 1.919854,-0.53397 3.805603,-1.11244 5.663737,-1.72651 1.858132,-0.61408 3.688386,-1.26373 5.497856,-1.93994 1.80947,-0.67621 3.59791,-1.37922 5.37177,-2.09961 3.54768,-1.44078 7.03727,-2.95202 10.520814,-4.46174 3.48353,-1.50973 6.96084,-3.01798 10.48463,-4.45296 1.76189,-0.71749 3.53527,-1.41638 5.32679,-2.08824 1.79155,-0.67186 3.60163,-1.31668 5.43586,-1.92495 1.83421,-0.60827 3.69263,-1.18016 5.5826,-1.70687 1.88996,-0.52672 3.81142,-1.00837 5.7702,-1.43557 1.95876,-0.4272 3.95489,-0.79977 5.99549,-1.1095 2.04061,-0.30972 4.12561,-0.55642 6.26112,-0.7307 2.1355,-0.17429 4.32152,-0.27626 6.56498,-0.29714 2.24345,-0.0209 4.54416,0.0392 6.90862,0.18965 1.18223,0.0752 2.38072,0.17311 3.59564,0.29456 1.21493,0.12145 2.44612,0.26676 3.69539,0.43666 1.24925,0.1699 2.5161,0.36438 3.80131,0.58498 1.28522,0.2206 2.5891,0.4675 3.91191,0.74104 1.32281,0.27354 2.6646,0.57406 4.02663,0.90279 1.36203,0.32873 2.74414,0.6856 4.14703,1.07177 1.40289,0.38616 2.82672,0.80162 4.27209,1.24747 1.44537,0.44584 2.91231,0.92211 4.4018,1.42988 1.48949,0.50777 3.00144,1.04708 4.53668,1.61902 1.53523,0.57194 3.09357,1.17652 4.67619,1.81488 1.42656,0.57541 2.87968,1.18738 4.34599,1.81849 v -15.03474 z" />
      </g>
    </g>
  </g>
</svg>
