<?xml version="1.0" encoding="UTF-8" standalone="no"?>
<svg
   xmlns:dc="http://purl.org/dc/elements/1.1/"
   xmlns:cc="http://creativecommons.org/ns#"
   xmlns:rdf="http://www.w3.org/1999/02/22-rdf-syntax-ns#"
   xmlns:svg="http://www.w3.org/2000/svg"
   xmlns="http://www.w3.org/2000/svg"
   xmlns:xlink="http://www.w3.org/1999/xlink"
   xmlns:sodipodi="http://sodipodi.sourceforge.net/DTD/sodipodi-0.dtd"
   xmlns:inkscape="http://www.inkscape.org/namespaces/inkscape"
   width="209.71744mm"
   height="34.011356mm"
   viewBox="0 0 209.71744 34.011356"
   version="1.1"
   id="svg11354"
   inkscape:version="1.0.1 (0767f8302a, 2020-10-17)"
   sodipodi:docname="transition1.svg">
  <defs
     id="defs11348">
    <clipPath
       clipPathUnits="userSpaceOnUse"
       id="clipPath868">
      <use
         x="0"
         y="0"
         xlink:href="#g864"
         id="use870"
         width="100%"
         height="100%" />
    </clipPath>
    <clipPath
       clipPathUnits="userSpaceOnUse"
       id="clipPath878">
      <use
         x="0"
         y="0"
         xlink:href="#g874"
         id="use880"
         width="100%"
         height="100%" />
    </clipPath>
    <clipPath
       clipPathUnits="userSpaceOnUse"
       id="clipPath888">
      <use
         x="0"
         y="0"
         xlink:href="#g884"
         id="use890"
         width="100%"
         height="100%" />
    </clipPath>
  </defs>
  <sodipodi:namedview
     id="base"
     pagecolor="#ffffff"
     bordercolor="#666666"
     borderopacity="1.0"
     inkscape:pageopacity="0.0"
     inkscape:pageshadow="2"
     inkscape:zoom="0.7"
     inkscape:cx="136.67687"
     inkscape:cy="227.8716"
     inkscape:document-units="mm"
     inkscape:current-layer="layer1"
     inkscape:document-rotation="0"
     showgrid="false"
     inkscape:window-width="1920"
     inkscape:window-height="1052"
     inkscape:window-x="0"
     inkscape:window-y="0"
     inkscape:window-maximized="1" />
  <metadata
     id="metadata11351">
    <rdf:RDF>
      <cc:Work
         rdf:about="">
        <dc:format>image/svg+xml</dc:format>
        <dc:type
           rdf:resource="http://purl.org/dc/dcmitype/StillImage" />
        <dc:title></dc:title>
      </cc:Work>
    </rdf:RDF>
  </metadata>
  <g
     inkscape:label="Layer 1"
     inkscape:groupmode="layer"
     id="layer1"
     transform="translate(-0.75181,-78.854979)">
    <g
       id="g850"
       transform="translate(-9.9970827,-51.292037)">
      <path
         id="rect11917"
         style="fill:#ffddd2;fill-opacity:1;fill-rule:evenodd;stroke-width:3.77953;stroke-linejoin:round;paint-order:stroke fill markers"
         d="m 795.39648,156.08594 c -5.54198,-2.38529 -11.03406,-4.69827 -16.42578,-6.87305 -5.98155,-2.41269 -11.87135,-4.6977 -17.67382,-6.85937 -5.80248,-2.16167 -11.51692,-4.20001 -17.14649,-6.11914 -5.62956,-1.91914 -11.1739,-3.71921 -16.63672,-5.4043 -5.46282,-1.68509 -10.84424,-3.25532 -16.14648,-4.71485 -5.30225,-1.45953 -10.526,-2.80832 -15.67383,-4.05078 -5.14783,-1.24245 -10.21916,-2.37824 -15.21875,-3.41211 -4.99959,-1.03386 -9.92765,-1.96701 -14.78516,-2.80078 -4.8575,-0.83376 -9.64559,-1.56879 -14.36718,-2.21094 -4.7216,-0.64214 -9.37495,-1.19137 -13.9668,-1.65039 -4.59185,-0.45901 -9.12158,-0.82891 -13.58985,-1.11328 -8.93653,-0.56873 -17.63212,-0.79572 -26.11132,-0.71679 -8.47921,0.0789 -16.7413,0.46433 -24.8125,1.12304 -8.07121,0.65871 -15.95153,1.59112 -23.66407,2.76172 -7.71253,1.17061 -15.25696,2.57875 -22.66015,4.19336 -7.4032,1.61461 -14.66541,3.43505 -21.8086,5.42578 -7.14318,1.99073 -14.16711,4.15221 -21.0996,6.45117 -6.9325,2.29897 -13.77378,4.73608 -20.54493,7.27539 -6.77114,2.53932 -13.47369,5.18081 -20.13281,7.89258 -13.31823,5.42354 -26.46085,11.12402 -39.62695,16.83008 -13.1661,5.70606 -26.35507,11.4178 -39.76367,16.86328 -6.70431,2.72274 -13.46382,5.37978 -20.30274,7.93555 -6.83892,2.55576 -13.75643,5.01113 -20.7793,7.33203 -7.02286,2.3209 -14.1501,4.50724 -21.40625,6.52539 -7.25614,2.01816 -14.64289,3.86811 -22.18164,5.51563 -7.53874,1.64752 -15.23088,3.09178 -23.10156,4.30078 -7.87068,1.20899 -15.91993,2.18217 -24.17187,2.88476 -8.25194,0.70259 -16.70614,1.13538 -25.38868,1.26368 -8.68253,0.12829 -17.5934,-0.0486 -26.75586,-0.5625 -4.58122,-0.25695 -9.22509,-0.59713 -13.93554,-1.02735 -4.71046,-0.43022 -9.48618,-0.95052 -14.33203,-1.5625 -4.84585,-0.61198 -9.76064,-1.31691 -14.74805,-2.11914 -4.98741,-0.80223 -10.04846,-1.70021 -15.18359,-2.70117 -5.13514,-1.00096 -10.34574,-2.10433 -15.63477,-3.3125 -5.28903,-1.20818 -10.656377,-2.52143 -16.105468,-3.94531 -5.449091,-1.42388 -10.978433,-2.9574 -16.59375,-4.60547 -5.615317,-1.64807 -11.315807,-3.41027 -17.103516,-5.29102 -5.787709,-1.88074 -11.662639,-3.88005 -17.628906,-6.00195 -5.966267,-2.12191 -12.024791,-4.36673 -18.175781,-6.73828 -5.662405,-2.18318 -11.4240814,-4.50266 -17.2480471,-6.9043 v 57.8457 H 795.39648 Z"
         transform="scale(0.26458333)" />
      <path
         id="path11979"
         style="fill:#ebc7cb;fill-opacity:1;fill-rule:evenodd;stroke-width:3.77953;stroke-linejoin:round;paint-order:stroke fill markers"
         d="m 2.7636719,99.261719 v 70.701171 c 5.8239657,2.40164 11.5856421,4.72112 17.2480471,6.9043 6.15099,2.37155 12.209514,4.61637 18.175781,6.73828 5.966267,2.1219 11.841197,4.12121 17.628906,6.00195 5.787709,1.88075 11.488199,3.64295 17.103516,5.29102 5.615317,1.64807 11.144659,3.18159 16.59375,4.60547 5.449091,1.42388 10.816438,2.73713 16.105468,3.94531 5.28903,1.20817 10.49963,2.31154 15.63477,3.3125 5.13513,1.00096 10.19618,1.89894 15.18359,2.70117 4.98741,0.80223 9.9022,1.50716 14.74805,2.11914 4.84585,0.61198 9.62157,1.13228 14.33203,1.5625 4.71045,0.43022 9.35432,0.7704 13.93554,1.02735 9.16246,0.51389 18.07333,0.69079 26.75586,0.5625 8.68254,-0.1283 17.13674,-0.56109 25.38868,-1.26368 8.25194,-0.70259 16.30119,-1.67577 24.17187,-2.88476 7.87068,-1.209 15.56282,-2.65326 23.10156,-4.30078 7.53875,-1.64752 14.9255,-3.49747 22.18164,-5.51563 7.25615,-2.01815 14.38339,-4.20449 21.40625,-6.52539 7.02287,-2.3209 13.94038,-4.77627 20.7793,-7.33203 6.83892,-2.55577 13.59843,-5.21281 20.30274,-7.93555 13.4086,-5.44548 26.59757,-11.15722 39.76367,-16.86328 13.1661,-5.70606 26.30872,-11.40654 39.62695,-16.83008 6.65912,-2.71177 13.36167,-5.35326 20.13281,-7.89258 6.77115,-2.53931 13.61243,-4.97642 20.54493,-7.27539 6.93249,-2.29896 13.95642,-4.46044 21.0996,-6.45117 7.14319,-1.99073 14.4054,-3.81117 21.8086,-5.42578 7.40319,-1.61461 14.94762,-3.02275 22.66015,-4.19336 7.71254,-1.1706 15.59286,-2.10301 23.66407,-2.76172 8.0712,-0.65871 16.33329,-1.04411 24.8125,-1.12304 8.4792,-0.0789 17.17479,0.14806 26.11132,0.71679 4.46827,0.28437 8.998,0.65427 13.58985,1.11328 4.59185,0.45902 9.2452,1.00825 13.9668,1.65039 4.72159,0.64215 9.50968,1.37718 14.36718,2.21094 4.85751,0.83377 9.78557,1.76692 14.78516,2.80078 4.99959,1.03387 10.07092,2.16966 15.21875,3.41211 5.14783,1.24246 10.37158,2.59125 15.67383,4.05078 5.30224,1.45953 10.68366,3.02976 16.14648,4.71485 5.46282,1.68509 11.00716,3.48516 16.63672,5.4043 5.62957,1.91913 11.34401,3.95747 17.14649,6.11914 5.80247,2.16167 11.69227,4.44668 17.67382,6.85937 5.39172,2.17478 10.8838,4.48776 16.42578,6.87305 V 99.261719 Z"
         transform="scale(0.26458333)" />
    </g>
    <g
       id="g886"
       clip-path="url(#clipPath888)"
       transform="translate(4.8112143,1.6834059)">
      <g
         inkscape:label="Clip"
         id="g884">
        <path
           id="rect11917-0"
           style="fill:#edf6f9;fill-opacity:1;fill-rule:evenodd;stroke-width:1;stroke-linejoin:round;paint-order:stroke fill markers"
           d="m 205.65803,92.206313 c -1.46631,-0.63111 -2.91943,-1.24308 -4.34599,-1.81849 -1.58262,-0.63836 -3.14096,-1.24294 -4.67619,-1.81488 -1.53524,-0.57194 -3.04719,-1.11125 -4.53668,-1.61902 -1.48949,-0.507773 -2.95643,-0.984041 -4.4018,-1.429888 -1.44537,-0.445846 -2.8692,-0.861303 -4.27209,-1.24747 -1.40289,-0.386168 -2.785,-0.743035 -4.14703,-1.071769 -1.36203,-0.328732 -2.70382,-0.629243 -4.02663,-0.902788 -1.32281,-0.273542 -2.62669,-0.520438 -3.91191,-0.74104 -1.28521,-0.220599 -2.55206,-0.415075 -3.80131,-0.584977 -1.24926,-0.1699 -2.48046,-0.315217 -3.69539,-0.436666 -1.21492,-0.121446 -2.41341,-0.219316 -3.59564,-0.294555 -2.36446,-0.150477 -4.66517,-0.210535 -6.90862,-0.189651 -2.24346,0.02088 -4.42947,0.122854 -6.56498,0.297138 -2.13551,0.174283 -4.22051,0.420983 -6.26112,0.730705 -2.0406,0.309724 -4.03673,0.682294 -5.99549,1.109493 -1.95877,0.427199 -3.88023,0.908857 -5.7702,1.435571 -1.88996,0.526714 -3.74838,1.098605 -5.5826,1.706872 -1.83422,0.608269 -3.64431,1.253088 -5.43585,1.924947 -1.79153,0.671861 -3.56491,1.370758 -5.3268,2.088248 -3.52378,1.43498 -7.0011,2.94323 -10.48463,4.45296 -3.483532,1.50972 -6.973122,3.02096 -10.520812,4.46174 -1.77385,0.72039 -3.5623,1.4234 -5.37177,2.099607 -1.80946,0.67621 -3.639717,1.32586 -5.497851,1.93994 -1.858132,0.61407 -3.743881,1.19254 -5.663737,1.72651 -1.919854,0.53397 -3.874265,1.02343 -5.868892,1.45934 -1.994625,0.43591 -4.029837,0.81803 -6.112288,1.13791 -2.082451,0.31988 -4.212148,0.57737 -6.395474,0.76326 -2.183326,0.1859 -4.420166,0.30041 -6.717422,0.33435 -2.297252,0.0339 -4.65492,-0.0129 -7.079154,-0.14883 -1.212115,-0.068 -2.440805,-0.15799 -3.687112,-0.27182 -1.246309,-0.11383 -2.509885,-0.25149 -3.792016,-0.41341 -1.282131,-0.16192 -2.582503,-0.34843 -3.902088,-0.56069 -1.319586,-0.21225 -2.658656,-0.44984 -4.017325,-0.71468 -1.358673,-0.26484 -2.737311,-0.55677 -4.1367,-0.87643 -1.39939,-0.31967 -2.8195,-0.66713 -4.261239,-1.04387 -1.441738,-0.37673 -2.90471,-0.78248 -4.39043,-1.21853 -1.485719,-0.43605 -2.993973,-0.9023 -4.5253053,-1.39991 -1.531331,-0.49762 -3.08574,-1.0266 -4.664315,-1.588017 -1.578574,-0.56142 -3.181559,-1.15536 -4.80900797,-1.78284 -1.498178,-0.57763 -3.02262203,-1.19132 -4.56354603,-1.82676 V 111.18293 H 205.65803 Z" />
        <path
           id="path11979-9"
           style="fill:#ffddd2;fill-opacity:1;fill-rule:evenodd;stroke-width:1;stroke-linejoin:round;paint-order:stroke fill markers"
           d="m -4.0594043,77.171573 v 18.70635 c 1.540924,0.63544 3.06536803,1.24913 4.56354603,1.82676 1.62744897,0.62748 3.23043397,1.22142 4.80900797,1.78284 1.578575,0.561417 3.132984,1.090397 4.664315,1.588017 1.5313323,0.49761 3.0395863,0.96386 4.5253053,1.39991 1.48572,0.43605 2.948692,0.8418 4.39043,1.21853 1.441739,0.37674 2.861849,0.7242 4.261239,1.04387 1.399389,0.31966 2.778027,0.61159 4.1367,0.87643 1.358669,0.26484 2.697739,0.50243 4.017325,0.71468 1.319585,0.21226 2.619957,0.39877 3.902088,0.56069 1.282131,0.16192 2.545707,0.29958 3.792016,0.41341 1.246307,0.11383 2.474997,0.20384 3.687112,0.27182 2.424234,0.13597 4.781902,0.18278 7.079154,0.14883 2.297256,-0.0339 4.534096,-0.14845 6.717422,-0.33435 2.183326,-0.18589 4.313023,-0.44338 6.395474,-0.76326 2.082451,-0.31988 4.117663,-0.702 6.112288,-1.13791 1.994627,-0.43591 3.949038,-0.92537 5.868892,-1.45934 1.919856,-0.53397 3.805605,-1.11244 5.663737,-1.72651 1.858134,-0.61408 3.688391,-1.26373 5.497851,-1.93994 1.80947,-0.676207 3.59792,-1.379217 5.37177,-2.099607 3.54769,-1.44078 7.03728,-2.95202 10.520812,-4.46174 3.48353,-1.50973 6.96085,-3.01798 10.48463,-4.45296 1.76189,-0.71749 3.53527,-1.416387 5.3268,-2.088248 1.79154,-0.671859 3.60163,-1.316678 5.43585,-1.924947 1.83422,-0.608267 3.69264,-1.180158 5.5826,-1.706872 1.88997,-0.526714 3.81143,-1.008372 5.7702,-1.435571 1.95876,-0.427199 3.95489,-0.799769 5.99549,-1.109493 2.04061,-0.309722 4.12561,-0.556422 6.26112,-0.730705 2.13551,-0.174284 4.32152,-0.276255 6.56498,-0.297138 2.24345,-0.02088 4.54416,0.03917 6.90862,0.189651 1.18223,0.07524 2.38072,0.173109 3.59564,0.294555 1.21493,0.121449 2.44613,0.266766 3.69539,0.436666 1.24925,0.169902 2.5161,0.364378 3.80131,0.584977 1.28522,0.220602 2.5891,0.467498 3.91191,0.74104 1.32281,0.273545 2.6646,0.574056 4.02663,0.902788 1.36203,0.328734 2.74414,0.685601 4.14703,1.071769 1.40289,0.386167 2.82672,0.801624 4.27209,1.24747 1.44537,0.445847 2.91231,0.922115 4.4018,1.429888 1.48949,0.50777 3.00144,1.04708 4.53668,1.61902 1.53523,0.57194 3.09357,1.17652 4.67619,1.81488 1.42656,0.57541 2.87968,1.18738 4.34599,1.81849 v -15.03474 z" />
      </g>
    </g>
    <g
       id="g866"
       clip-path="url(#clipPath868)"
       transform="translate(3.6801464,3.3539389)">
      <g
         inkscape:label="Clip"
         id="g864">
        <path
           id="rect11917-0-3"
           style="fill:#87b9b2;fill-opacity:1;fill-rule:evenodd;stroke-width:1;stroke-linejoin:round;paint-order:stroke fill markers"
           d="m 204.94942,142.59831 c -1.46631,-0.63111 -2.91943,-1.24308 -4.34599,-1.81849 -1.58262,-0.63836 -3.14096,-1.24294 -4.67619,-1.81488 -1.53524,-0.57194 -3.04719,-1.11125 -4.53668,-1.61902 -1.48949,-0.50777 -2.95643,-0.98404 -4.4018,-1.42988 -1.44537,-0.44585 -2.8692,-0.86131 -4.27209,-1.24747 -1.40289,-0.38617 -2.785,-0.74304 -4.14703,-1.07177 -1.36203,-0.32873 -2.70382,-0.62925 -4.02663,-0.90279 -1.32281,-0.27354 -2.62669,-0.52044 -3.91191,-0.74104 -1.28521,-0.2206 -2.55206,-0.41508 -3.80131,-0.58498 -1.24927,-0.1699 -2.48046,-0.31521 -3.69539,-0.43666 -1.21492,-0.12145 -2.41341,-0.21932 -3.59564,-0.29456 -2.36446,-0.15048 -4.66517,-0.21053 -6.90862,-0.18965 -2.24346,0.0209 -4.42948,0.12285 -6.56498,0.29714 -2.13551,0.17428 -4.22051,0.42098 -6.26112,0.7307 -2.0406,0.30973 -4.03673,0.6823 -5.99549,1.1095 -1.95878,0.4272 -3.88024,0.90885 -5.7702,1.43557 -1.88997,0.52671 -3.74839,1.0986 -5.5826,1.70687 -1.83423,0.60827 -3.64431,1.25309 -5.43586,1.92495 -1.79152,0.67186 -3.5649,1.37075 -5.32679,2.08824 -3.52379,1.43498 -7.0011,2.94323 -10.48463,4.45296 -3.483544,1.50972 -6.973134,3.02096 -10.520814,4.46174 -1.77386,0.72039 -3.5623,1.4234 -5.37177,2.09961 -1.80947,0.67621 -3.639724,1.32586 -5.497856,1.93994 -1.858134,0.61407 -3.743883,1.19254 -5.663737,1.72651 -1.919856,0.53397 -3.874267,1.02343 -5.868892,1.45934 -1.994625,0.43591 -4.029837,0.81803 -6.11229,1.13791 -2.082451,0.31988 -4.212146,0.57737 -6.395474,0.76326 -2.183326,0.1859 -4.420166,0.30041 -6.717422,0.33435 -2.297252,0.0339 -4.65492,-0.0129 -7.079154,-0.14883 -1.212115,-0.068 -2.440805,-0.15799 -3.687112,-0.27182 -1.246309,-0.11383 -2.509885,-0.25149 -3.792016,-0.41341 -1.282131,-0.16192 -2.582503,-0.34843 -3.902088,-0.56069 -1.319586,-0.21225 -2.658656,-0.44984 -4.017325,-0.71468 -1.358673,-0.26484 -2.737311,-0.55677 -4.1367,-0.87643 -1.399389,-0.31967 -2.819499,-0.66713 -4.261239,-1.04387 -1.441737,-0.37673 -2.904709,-0.78248 -4.39043,-1.21853 -1.485719,-0.43605 -2.993973,-0.9023 -4.5253049,-1.39991 -1.531331,-0.49762 -3.08574,-1.0266 -4.664314,-1.58802 -1.578574,-0.56142 -3.18156,-1.15536 -4.80900902,-1.78284 -1.49817798,-0.57763 -3.02262198,-1.19132 -4.56354598,-1.82676 v 15.30501 H 204.94942 Z" />
        <path
           id="path11979-9-6"
           style="fill:#edf6f9;fill-opacity:1;fill-rule:evenodd;stroke-width:1;stroke-linejoin:round;paint-order:stroke fill markers"
           d="m -4.7680229,127.56357 v 18.70635 c 1.540924,0.63544 3.065368,1.24913 4.56354598,1.82676 1.62744902,0.62748 3.23043502,1.22142 4.80900902,1.78284 1.578574,0.56142 3.132983,1.0904 4.664314,1.58802 1.5313319,0.49761 3.0395859,0.96386 4.5253049,1.39991 1.485721,0.43605 2.948693,0.8418 4.39043,1.21853 1.44174,0.37674 2.86185,0.7242 4.261239,1.04387 1.399389,0.31966 2.778027,0.61159 4.1367,0.87643 1.358669,0.26484 2.697739,0.50243 4.017325,0.71468 1.319585,0.21226 2.619957,0.39877 3.902088,0.56069 1.282131,0.16192 2.545707,0.29958 3.792016,0.41341 1.246307,0.11383 2.474997,0.20384 3.687112,0.27182 2.424234,0.13597 4.781902,0.18278 7.079154,0.14883 2.297256,-0.0339 4.534096,-0.14845 6.717422,-0.33435 2.183328,-0.18589 4.313023,-0.44338 6.395474,-0.76326 2.082453,-0.31988 4.117665,-0.702 6.11229,-1.13791 1.994625,-0.43591 3.949036,-0.92537 5.868892,-1.45934 1.919854,-0.53397 3.805603,-1.11244 5.663737,-1.72651 1.858132,-0.61408 3.688386,-1.26373 5.497856,-1.93994 1.80947,-0.67621 3.59791,-1.37922 5.37177,-2.09961 3.54768,-1.44078 7.03727,-2.95202 10.520814,-4.46174 3.48353,-1.50973 6.96084,-3.01798 10.48463,-4.45296 1.76189,-0.71749 3.53527,-1.41638 5.32679,-2.08824 1.79155,-0.67186 3.60163,-1.31668 5.43586,-1.92495 1.83421,-0.60827 3.69263,-1.18016 5.5826,-1.70687 1.88996,-0.52672 3.81142,-1.00837 5.7702,-1.43557 1.95876,-0.4272 3.95489,-0.79977 5.99549,-1.1095 2.04061,-0.30972 4.12561,-0.55642 6.26112,-0.7307 2.1355,-0.17429 4.32152,-0.27626 6.56498,-0.29714 2.24345,-0.0209 4.54416,0.0392 6.90862,0.18965 1.18223,0.0752 2.38072,0.17311 3.59564,0.29456 1.21493,0.12145 2.44612,0.26676 3.69539,0.43666 1.24925,0.1699 2.5161,0.36438 3.80131,0.58498 1.28522,0.2206 2.5891,0.4675 3.91191,0.74104 1.32281,0.27354 2.6646,0.57406 4.02663,0.90279 1.36203,0.32873 2.74414,0.6856 4.14703,1.07177 1.40289,0.38616 2.82672,0.80162 4.27209,1.24747 1.44537,0.44584 2.91231,0.92211 4.4018,1.42988 1.48949,0.50777 3.00144,1.04708 4.53668,1.61902 1.53523,0.57194 3.09357,1.17652 4.67619,1.81488 1.42656,0.57541 2.87968,1.18738 4.34599,1.81849 v -15.03474 z" />
      </g>
    </g>
    <g
       id="g876"
       clip-path="url(#clipPath878)">
      <g
         inkscape:label="Clip"
         id="g874">
        <path
           id="rect11917-0-0"
           style="fill:#007b5f;fill-opacity:1;fill-rule:evenodd;stroke-width:1;stroke-linejoin:round;paint-order:stroke fill markers"
           d="m 205.02315,194.85235 c -1.46631,-0.63111 -2.91943,-1.24308 -4.34599,-1.81849 -1.58262,-0.63836 -3.14096,-1.24294 -4.67619,-1.81488 -1.53524,-0.57194 -3.04719,-1.11125 -4.53668,-1.61902 -1.48949,-0.50778 -2.95643,-0.98404 -4.4018,-1.42989 -1.44537,-0.44585 -2.8692,-0.8613 -4.27209,-1.24747 -1.40289,-0.38617 -2.785,-0.74304 -4.14703,-1.07177 -1.36203,-0.32873 -2.70382,-0.62924 -4.02663,-0.90279 -1.32281,-0.27354 -2.62669,-0.52044 -3.91191,-0.74104 -1.28521,-0.2206 -2.55206,-0.41507 -3.80131,-0.58498 -1.24927,-0.1699 -2.48046,-0.31521 -3.69539,-0.43666 -1.21492,-0.12145 -2.41341,-0.21932 -3.59564,-0.29456 -2.36446,-0.15047 -4.66517,-0.21053 -6.90862,-0.18965 -2.24346,0.0209 -4.42948,0.12286 -6.56498,0.29714 -2.13551,0.17428 -4.22051,0.42098 -6.26112,0.73071 -2.0406,0.30972 -4.03673,0.68229 -5.99549,1.10949 -1.95878,0.4272 -3.88024,0.90886 -5.7702,1.43557 -1.88997,0.52671 -3.74839,1.0986 -5.5826,1.70687 -1.83423,0.60827 -3.64431,1.25309 -5.43586,1.92495 -1.79152,0.67186 -3.5649,1.37076 -5.32679,2.08825 -3.52379,1.43498 -7.0011,2.94323 -10.48463,4.45296 -3.483541,1.50972 -6.973128,3.02096 -10.520817,4.46174 -1.773851,0.72039 -3.5623,1.4234 -5.371769,2.0996 -1.809462,0.67621 -3.63972,1.32586 -5.497852,1.93994 -1.858134,0.61407 -3.743883,1.19254 -5.663737,1.72651 -1.919856,0.53397 -3.874267,1.02343 -5.868892,1.45934 -1.994625,0.43591 -4.029837,0.81803 -6.11229,1.13791 -2.082451,0.31988 -4.212146,0.57737 -6.395474,0.76326 -2.183326,0.1859 -4.420166,0.30041 -6.717422,0.33436 -2.297252,0.0339 -4.65492,-0.0129 -7.079154,-0.14884 -1.212115,-0.068 -2.440805,-0.15799 -3.687112,-0.27182 -1.246309,-0.11383 -2.509885,-0.25149 -3.792016,-0.41341 -1.282131,-0.16192 -2.582503,-0.34843 -3.902088,-0.56069 -1.319586,-0.21225 -2.658656,-0.44984 -4.017325,-0.71468 -1.358673,-0.26484 -2.737311,-0.55677 -4.1367,-0.87643 -1.399389,-0.31967 -2.819499,-0.66713 -4.261239,-1.04387 -1.441737,-0.37673 -2.904709,-0.78248 -4.39043,-1.21853 -1.485719,-0.43605 -2.993973,-0.9023 -4.5253048,-1.39991 -1.531331,-0.49762 -3.08574,-1.0266 -4.664315,-1.58801 -1.578574,-0.56142 -3.181559,-1.15536 -4.80900805,-1.78284 -1.49817795,-0.57763 -3.02262195,-1.19132 -4.56354595,-1.82676 v 15.305 H 205.02315 Z" />
        <path
           id="path11979-9-62"
           style="fill:#87b9b2;fill-opacity:1;fill-rule:evenodd;stroke-width:1;stroke-linejoin:round;paint-order:stroke fill markers"
           d="m -4.6942908,179.81761 v 18.70635 c 1.540924,0.63544 3.065368,1.24913 4.56354595,1.82676 1.62744905,0.62748 3.23043405,1.22142 4.80900805,1.78284 1.578575,0.56141 3.132984,1.09039 4.664315,1.58801 1.5313318,0.49761 3.0395858,0.96386 4.5253048,1.39991 1.485721,0.43605 2.948693,0.8418 4.39043,1.21853 1.44174,0.37674 2.86185,0.7242 4.261239,1.04387 1.399389,0.31966 2.778027,0.61159 4.1367,0.87643 1.358669,0.26484 2.697739,0.50243 4.017325,0.71468 1.319585,0.21226 2.619957,0.39877 3.902088,0.56069 1.282131,0.16192 2.545707,0.29958 3.792016,0.41341 1.246307,0.11383 2.474997,0.20384 3.687112,0.27182 2.424234,0.13597 4.781902,0.18278 7.079154,0.14884 2.297256,-0.0339 4.534096,-0.14846 6.717422,-0.33436 2.183328,-0.18589 4.313023,-0.44338 6.395474,-0.76326 2.082453,-0.31988 4.117665,-0.702 6.11229,-1.13791 1.994625,-0.43591 3.949036,-0.92537 5.868892,-1.45934 1.919854,-0.53397 3.805603,-1.11244 5.663737,-1.72651 1.858132,-0.61408 3.68839,-1.26373 5.497852,-1.93994 1.809469,-0.6762 3.597918,-1.37921 5.371769,-2.0996 3.547689,-1.44078 7.037276,-2.95202 10.520817,-4.46174 3.48353,-1.50973 6.96084,-3.01798 10.48463,-4.45296 1.76189,-0.71749 3.53527,-1.41639 5.32679,-2.08825 1.79155,-0.67186 3.60163,-1.31668 5.43586,-1.92495 1.83421,-0.60827 3.69263,-1.18016 5.5826,-1.70687 1.88996,-0.52671 3.81142,-1.00837 5.7702,-1.43557 1.95876,-0.4272 3.95489,-0.79977 5.99549,-1.10949 2.04061,-0.30973 4.12561,-0.55643 6.26112,-0.73071 2.1355,-0.17428 4.32152,-0.27625 6.56498,-0.29714 2.24345,-0.0209 4.54416,0.0392 6.90862,0.18965 1.18223,0.0752 2.38072,0.17311 3.59564,0.29456 1.21493,0.12145 2.44612,0.26676 3.69539,0.43666 1.24925,0.16991 2.5161,0.36438 3.80131,0.58498 1.28522,0.2206 2.5891,0.4675 3.91191,0.74104 1.32281,0.27355 2.6646,0.57406 4.02663,0.90279 1.36203,0.32873 2.74414,0.6856 4.14703,1.07177 1.40289,0.38617 2.82672,0.80162 4.27209,1.24747 1.44537,0.44585 2.91231,0.92211 4.4018,1.42989 1.48949,0.50777 3.00144,1.04708 4.53668,1.61902 1.53523,0.57194 3.09357,1.17652 4.67619,1.81488 1.42656,0.57541 2.87968,1.18738 4.34599,1.81849 v -15.03474 z" />
      </g>
    </g>
    <path
       id="rect11917-0-6"
       style="fill:#ebc7cb;fill-opacity:1;fill-rule:evenodd;stroke-width:1;stroke-linejoin:round;paint-order:stroke fill markers"
       d="m 201.94046,240.16305 c -1.46631,-0.63111 -2.91943,-1.24308 -4.34599,-1.81849 -1.58262,-0.63836 -3.14096,-1.24294 -4.67619,-1.81488 -1.53524,-0.57194 -3.04719,-1.11125 -4.53668,-1.61902 -1.48949,-0.50777 -2.95643,-0.98404 -4.4018,-1.42989 -1.44537,-0.44585 -2.8692,-0.8613 -4.27209,-1.24747 -1.40289,-0.38617 -2.785,-0.74303 -4.14703,-1.07177 -1.36203,-0.32873 -2.70382,-0.62924 -4.02663,-0.90279 -1.32281,-0.27354 -2.62669,-0.52043 -3.91191,-0.74104 -1.28521,-0.2206 -2.55206,-0.41507 -3.80131,-0.58497 -1.24927,-0.1699 -2.48046,-0.31522 -3.69539,-0.43667 -1.21492,-0.12145 -2.41341,-0.21932 -3.59564,-0.29455 -2.36446,-0.15048 -4.66517,-0.21054 -6.90862,-0.18966 -2.24346,0.0209 -4.42948,0.12286 -6.56498,0.29714 -2.13551,0.17429 -4.22051,0.42099 -6.26112,0.73071 -2.0406,0.30972 -4.03673,0.68229 -5.99549,1.10949 -1.95878,0.4272 -3.88024,0.90886 -5.7702,1.43557 -1.88997,0.52672 -3.74839,1.09861 -5.5826,1.70687 -1.83423,0.60827 -3.64431,1.25309 -5.43586,1.92495 -1.79152,0.67186 -3.5649,1.37076 -5.32679,2.08825 -3.52379,1.43498 -7.0011,2.94323 -10.484626,4.45296 -3.48354,1.50972 -6.973126,3.02096 -10.520815,4.46174 -1.773851,0.72039 -3.5623,1.4234 -5.371769,2.09961 -1.809462,0.67621 -3.63972,1.32586 -5.497852,1.93994 -1.858134,0.61407 -3.743883,1.19254 -5.663737,1.72651 -1.919856,0.53396 -3.874267,1.02343 -5.868892,1.45934 -1.994625,0.43591 -4.029837,0.81803 -6.11229,1.13791 -2.082451,0.31988 -4.212146,0.57736 -6.395474,0.76326 -2.183326,0.18589 -4.420166,0.30041 -6.717422,0.33435 -2.297252,0.0339 -4.65492,-0.0129 -7.079154,-0.14883 -1.212115,-0.068 -2.440805,-0.15799 -3.687112,-0.27182 -1.246309,-0.11384 -2.509885,-0.2515 -3.792016,-0.41341 -1.282131,-0.16192 -2.582503,-0.34843 -3.902088,-0.56069 -1.319586,-0.21226 -2.658656,-0.44984 -4.017325,-0.71468 -1.358673,-0.26484 -2.737311,-0.55677 -4.1367,-0.87644 -1.399389,-0.31967 -2.819499,-0.66712 -4.261239,-1.04386 -1.441737,-0.37673 -2.904709,-0.78248 -4.39043,-1.21853 -1.485719,-0.43605 -2.993973,-0.9023 -4.525305,-1.39991 -1.531331,-0.49762 -3.08574,-1.0266 -4.6643148,-1.58802 -1.57857399,-0.56142 -3.1815593,-1.15536 -4.8090082,-1.78284 -1.498178,-0.57763 -3.022622,-1.19132 -4.563546,-1.82676 v 15.30501 H 201.94046 Z" />
    <path
       id="path11979-9-1"
       style="fill:#007b5f;fill-opacity:1;fill-rule:evenodd;stroke-width:1;stroke-linejoin:round;paint-order:stroke fill markers"
       d="m -7.776975,225.12831 v 18.70635 c 1.540924,0.63544 3.065368,1.24913 4.563546,1.82676 1.6274489,0.62748 3.23043421,1.22142 4.8090082,1.78284 1.5785748,0.56142 3.1329838,1.0904 4.6643148,1.58802 1.531332,0.49761 3.039586,0.96386 4.525305,1.39991 1.485721,0.43605 2.948693,0.8418 4.39043,1.21853 1.44174,0.37674 2.86185,0.72419 4.261239,1.04386 1.399389,0.31967 2.778027,0.6116 4.1367,0.87644 1.358669,0.26484 2.697739,0.50242 4.017325,0.71468 1.319585,0.21226 2.619957,0.39877 3.902088,0.56069 1.282131,0.16191 2.545707,0.29957 3.792016,0.41341 1.246307,0.11383 2.474997,0.20384 3.687112,0.27182 2.424234,0.13597 4.781902,0.18278 7.079154,0.14883 2.297256,-0.0339 4.534096,-0.14846 6.717422,-0.33435 2.183328,-0.1859 4.313023,-0.44338 6.395474,-0.76326 2.082453,-0.31988 4.117665,-0.702 6.11229,-1.13791 1.994625,-0.43591 3.949036,-0.92538 5.868892,-1.45934 1.919854,-0.53397 3.805603,-1.11244 5.663737,-1.72651 1.858132,-0.61408 3.68839,-1.26373 5.497852,-1.93994 1.809469,-0.67621 3.597918,-1.37922 5.371769,-2.09961 3.547689,-1.44078 7.037275,-2.95202 10.520815,-4.46174 3.483526,-1.50973 6.960836,-3.01798 10.484626,-4.45296 1.76189,-0.71749 3.53527,-1.41639 5.32679,-2.08825 1.79155,-0.67186 3.60163,-1.31668 5.43586,-1.92495 1.83421,-0.60826 3.69263,-1.18015 5.5826,-1.70687 1.88996,-0.52671 3.81142,-1.00837 5.7702,-1.43557 1.95876,-0.4272 3.95489,-0.79977 5.99549,-1.10949 2.04061,-0.30972 4.12561,-0.55642 6.26112,-0.73071 2.1355,-0.17428 4.32152,-0.27625 6.56498,-0.29714 2.24345,-0.0209 4.54416,0.0392 6.90862,0.18966 1.18223,0.0752 2.38072,0.1731 3.59564,0.29455 1.21493,0.12145 2.44612,0.26677 3.69539,0.43667 1.24925,0.1699 2.5161,0.36437 3.80131,0.58497 1.28522,0.22061 2.5891,0.4675 3.91191,0.74104 1.32281,0.27355 2.6646,0.57406 4.02663,0.90279 1.36203,0.32874 2.74414,0.6856 4.14703,1.07177 1.40289,0.38617 2.82672,0.80162 4.27209,1.24747 1.44537,0.44585 2.91231,0.92212 4.4018,1.42989 1.48949,0.50777 3.00144,1.04708 4.53668,1.61902 1.53523,0.57194 3.09357,1.17652 4.67619,1.81488 1.42656,0.57541 2.87968,1.18738 4.34599,1.81849 v -15.03474 z" />
    <path
       id="rect11917-0-8"
       style="fill:#ffddd2;fill-opacity:0.713725;fill-rule:evenodd;stroke-width:1;stroke-linejoin:round;paint-order:stroke fill markers"
       d="m 200.8416,304.35042 c -1.46631,-0.63111 -2.91943,-1.24308 -4.34599,-1.81849 -1.58262,-0.63836 -3.14096,-1.24294 -4.67619,-1.81488 -1.53524,-0.57194 -3.04719,-1.11125 -4.53668,-1.61902 -1.48949,-0.50778 -2.95643,-0.98405 -4.4018,-1.42989 -1.44537,-0.44585 -2.8692,-0.86131 -4.27209,-1.24747 -1.40289,-0.38617 -2.785,-0.74304 -4.14703,-1.07177 -1.36203,-0.32873 -2.70382,-0.62924 -4.02663,-0.90279 -1.32281,-0.27354 -2.62669,-0.52044 -3.91191,-0.74104 -1.28521,-0.2206 -2.55206,-0.41507 -3.80131,-0.58498 -1.24927,-0.1699 -2.48046,-0.31521 -3.69539,-0.43666 -1.21492,-0.12145 -2.41341,-0.21932 -3.59564,-0.29456 -2.36446,-0.15047 -4.66517,-0.21053 -6.90862,-0.18965 -2.24346,0.0209 -4.42948,0.12286 -6.56498,0.29714 -2.13551,0.17428 -4.22051,0.42098 -6.26112,0.7307 -2.0406,0.30973 -4.03673,0.6823 -5.99549,1.1095 -1.95878,0.4272 -3.88024,0.90885 -5.7702,1.43557 -1.88997,0.52671 -3.74839,1.0986 -5.5826,1.70687 -1.83423,0.60827 -3.64431,1.25309 -5.43586,1.92495 -1.79152,0.67186 -3.5649,1.37076 -5.32679,2.08825 -3.52379,1.43498 -7.0011,2.94323 -10.484627,4.45296 -3.48354,1.50972 -6.973127,3.02096 -10.520816,4.46174 -1.773851,0.72039 -3.5623,1.4234 -5.371769,2.0996 -1.809462,0.67621 -3.63972,1.32586 -5.497852,1.93994 -1.858134,0.61407 -3.743883,1.19254 -5.663737,1.72651 -1.919856,0.53397 -3.874267,1.02343 -5.868892,1.45934 -1.994625,0.43591 -4.029837,0.81803 -6.11229,1.13791 -2.082451,0.31988 -4.212146,0.57737 -6.395474,0.76326 -2.183326,0.1859 -4.420166,0.30041 -6.717422,0.33435 -2.297252,0.0339 -4.65492,-0.0129 -7.079154,-0.14883 -1.212115,-0.068 -2.440805,-0.15799 -3.687112,-0.27182 -1.246309,-0.11383 -2.509885,-0.25149 -3.792016,-0.41341 -1.282131,-0.16192 -2.582503,-0.34843 -3.902088,-0.56069 -1.319586,-0.21225 -2.658656,-0.44984 -4.017325,-0.71468 -1.358673,-0.26484 -2.737311,-0.55677 -4.1367,-0.87643 -1.399389,-0.31967 -2.819499,-0.66713 -4.261239,-1.04387 -1.441737,-0.37673 -2.904709,-0.78248 -4.39043,-1.21853 -1.485719,-0.43605 -2.9939734,-0.9023 -4.5253054,-1.39991 -1.531331,-0.49762 -3.08574,-1.0266 -4.66431478,-1.58801 -1.57857402,-0.56142 -3.18155932,-1.15536 -4.80900822,-1.78284 -1.498178,-0.57763 -3.022622,-1.19132 -4.563546,-1.82676 v 15.305 H 200.8416 Z" />
    <path
       id="path11979-9-7"
       style="fill:#e29578;fill-opacity:0.713725;fill-rule:evenodd;stroke-width:1;stroke-linejoin:round;paint-order:stroke fill markers"
       d="m -8.8758374,289.31568 v 18.70635 c 1.540924,0.63544 3.065368,1.24913 4.563546,1.82676 1.6274489,0.62748 3.2304342,1.22142 4.80900822,1.78284 1.57857478,0.56141 3.13298378,1.09039 4.66431478,1.58801 1.531332,0.49761 3.0395864,0.96386 4.5253054,1.39991 1.485721,0.43605 2.948693,0.8418 4.39043,1.21853 1.44174,0.37674 2.86185,0.7242 4.261239,1.04387 1.399389,0.31966 2.778027,0.61159 4.1367,0.87643 1.358669,0.26484 2.697739,0.50243 4.017325,0.71468 1.319585,0.21226 2.619957,0.39877 3.902088,0.56069 1.282131,0.16192 2.545707,0.29958 3.792016,0.41341 1.246307,0.11383 2.474997,0.20384 3.687112,0.27182 2.424234,0.13597 4.781902,0.18278 7.079154,0.14883 2.297256,-0.0339 4.534096,-0.14845 6.717422,-0.33435 2.183328,-0.18589 4.313023,-0.44338 6.395474,-0.76326 2.082453,-0.31988 4.117665,-0.702 6.11229,-1.13791 1.994625,-0.43591 3.949036,-0.92537 5.868892,-1.45934 1.919854,-0.53397 3.805603,-1.11244 5.663737,-1.72651 1.858132,-0.61408 3.68839,-1.26373 5.497852,-1.93994 1.809469,-0.6762 3.597918,-1.37921 5.371769,-2.0996 3.547689,-1.44078 7.037276,-2.95202 10.520816,-4.46174 3.483527,-1.50973 6.960837,-3.01798 10.484627,-4.45296 1.76189,-0.71749 3.53527,-1.41639 5.32679,-2.08825 1.79155,-0.67186 3.60163,-1.31668 5.43586,-1.92495 1.83421,-0.60827 3.69263,-1.18016 5.5826,-1.70687 1.88996,-0.52672 3.81142,-1.00837 5.7702,-1.43557 1.95876,-0.4272 3.95489,-0.79977 5.99549,-1.1095 2.04061,-0.30972 4.12561,-0.55642 6.26112,-0.7307 2.1355,-0.17428 4.32152,-0.27626 6.56498,-0.29714 2.24345,-0.0209 4.54416,0.0392 6.90862,0.18965 1.18223,0.0752 2.38072,0.17311 3.59564,0.29456 1.21493,0.12145 2.44612,0.26676 3.69539,0.43666 1.24925,0.16991 2.5161,0.36438 3.80131,0.58498 1.28522,0.2206 2.5891,0.4675 3.91191,0.74104 1.32281,0.27355 2.6646,0.57406 4.02663,0.90279 1.36203,0.32873 2.74414,0.6856 4.14703,1.07177 1.40289,0.38616 2.82672,0.80162 4.27209,1.24747 1.44537,0.44584 2.91231,0.92211 4.4018,1.42989 1.48949,0.50777 3.00144,1.04708 4.53668,1.61902 1.53523,0.57194 3.09357,1.17652 4.67619,1.81488 1.42656,0.57541 2.87968,1.18738 4.34599,1.81849 v -15.03474 z" />
    <path
       id="rect11917-0-9"
       style="fill:#ffddd2;fill-opacity:0.713725;fill-rule:evenodd;stroke-width:1;stroke-linejoin:round;paint-order:stroke fill markers"
       d="m 202.59195,359.44039 c -1.46631,-0.63111 -2.91943,-1.24308 -4.34599,-1.81849 -1.58262,-0.63836 -3.14096,-1.24294 -4.67619,-1.81488 -1.53524,-0.57194 -3.04719,-1.11125 -4.53668,-1.61902 -1.48949,-0.50777 -2.95643,-0.98404 -4.4018,-1.42989 -1.44537,-0.44584 -2.8692,-0.8613 -4.27209,-1.24747 -1.40289,-0.38616 -2.785,-0.74303 -4.14703,-1.07176 -1.36203,-0.32874 -2.70382,-0.62925 -4.02663,-0.90279 -1.32281,-0.27354 -2.62669,-0.52044 -3.91191,-0.74104 -1.28521,-0.2206 -2.55206,-0.41508 -3.80131,-0.58498 -1.24927,-0.1699 -2.48046,-0.31522 -3.69539,-0.43667 -1.21492,-0.12144 -2.41341,-0.21931 -3.59564,-0.29455 -2.36446,-0.15048 -4.66517,-0.21054 -6.90862,-0.18965 -2.24346,0.0209 -4.42948,0.12285 -6.56498,0.29714 -2.13551,0.17428 -4.22051,0.42098 -6.26112,0.7307 -2.0406,0.30973 -4.03673,0.6823 -5.99549,1.10949 -1.95878,0.4272 -3.88024,0.90886 -5.7702,1.43558 -1.88997,0.52671 -3.74839,1.0986 -5.5826,1.70687 -1.83423,0.60827 -3.64431,1.25309 -5.43586,1.92494 -1.79152,0.67187 -3.5649,1.37076 -5.32679,2.08825 -3.52379,1.43498 -7.00109,2.94323 -10.484623,4.45296 -3.48354,1.50972 -6.973127,3.02096 -10.520816,4.46174 -1.773851,0.72039 -3.5623,1.4234 -5.371769,2.09961 -1.809462,0.67621 -3.63972,1.32586 -5.497852,1.93994 -1.858134,0.61407 -3.743883,1.19254 -5.663737,1.72651 -1.919856,0.53397 -3.874267,1.02343 -5.868892,1.45934 -1.994625,0.43591 -4.029837,0.81803 -6.11229,1.13791 -2.082451,0.31988 -4.212146,0.57737 -6.395474,0.76326 -2.183326,0.1859 -4.420166,0.30041 -6.717422,0.33435 -2.297252,0.0339 -4.65492,-0.0129 -7.079154,-0.14883 -1.212115,-0.068 -2.440805,-0.15799 -3.687112,-0.27182 -1.246309,-0.11383 -2.509885,-0.25149 -3.792016,-0.41341 -1.282131,-0.16192 -2.582503,-0.34843 -3.902088,-0.56069 -1.319586,-0.21225 -2.658656,-0.44984 -4.017325,-0.71468 -1.358673,-0.26484 -2.737311,-0.55677 -4.1367,-0.87643 -1.399389,-0.31967 -2.819499,-0.66713 -4.261239,-1.04387 -1.441737,-0.37673 -2.904709,-0.78248 -4.39043,-1.21853 -1.4857188,-0.43605 -2.9939728,-0.9023 -4.5253048,-1.39991 -1.531331,-0.49762 -3.08574,-1.0266 -4.6643148,-1.58802 -1.57857402,-0.56142 -3.18155932,-1.15536 -4.8090082,-1.78284 -1.498178,-0.57763 -3.0226219,-1.19132 -4.5635459,-1.82676 v 15.30501 H 202.59195 Z" />
    <path
       id="path11979-9-2"
       style="fill:#e29578;fill-opacity:0.713725;fill-rule:evenodd;stroke-width:1;stroke-linejoin:round;paint-order:stroke fill markers"
       d="M -7.1254827,344.40565 V 363.112 c 1.540924,0.63544 3.0653679,1.24913 4.5635459,1.82676 1.62744888,0.62748 3.23043418,1.22142 4.8090082,1.78284 1.5785748,0.56142 3.1329838,1.0904 4.6643148,1.58802 1.531332,0.49761 3.039586,0.96386 4.5253048,1.39991 1.485721,0.43605 2.948693,0.8418 4.39043,1.21853 1.44174,0.37674 2.86185,0.7242 4.261239,1.04387 1.399389,0.31966 2.778027,0.61159 4.1367,0.87643 1.358669,0.26484 2.697739,0.50243 4.017325,0.71468 1.319585,0.21226 2.619957,0.39877 3.902088,0.56069 1.282131,0.16192 2.545707,0.29958 3.792016,0.41341 1.246307,0.11383 2.474997,0.20384 3.687112,0.27182 2.424234,0.13597 4.781902,0.18278 7.079154,0.14883 2.297256,-0.0339 4.534096,-0.14845 6.717422,-0.33435 2.183328,-0.18589 4.313023,-0.44338 6.395474,-0.76326 2.082453,-0.31988 4.117665,-0.702 6.11229,-1.13791 1.994625,-0.43591 3.949036,-0.92537 5.868892,-1.45934 1.919854,-0.53397 3.805603,-1.11244 5.663737,-1.72651 1.858132,-0.61408 3.68839,-1.26373 5.497852,-1.93994 1.809469,-0.67621 3.597918,-1.37922 5.371769,-2.09961 3.547689,-1.44078 7.037276,-2.95202 10.520816,-4.46174 3.483533,-1.50973 6.960833,-3.01798 10.484623,-4.45296 1.76189,-0.71749 3.53527,-1.41638 5.32679,-2.08825 1.79155,-0.67185 3.60163,-1.31667 5.43586,-1.92494 1.83421,-0.60827 3.69263,-1.18016 5.5826,-1.70687 1.88996,-0.52672 3.81142,-1.00838 5.7702,-1.43558 1.95876,-0.42719 3.95489,-0.79976 5.99549,-1.10949 2.04061,-0.30972 4.12561,-0.55642 6.26112,-0.7307 2.1355,-0.17429 4.32152,-0.27626 6.56498,-0.29714 2.24345,-0.0209 4.54416,0.0392 6.90862,0.18965 1.18223,0.0752 2.38072,0.17311 3.59564,0.29455 1.21493,0.12145 2.44612,0.26677 3.69539,0.43667 1.24925,0.1699 2.5161,0.36438 3.80131,0.58498 1.28522,0.2206 2.5891,0.4675 3.91191,0.74104 1.32281,0.27354 2.6646,0.57405 4.02663,0.90279 1.36203,0.32873 2.74414,0.6856 4.14703,1.07176 1.40289,0.38617 2.82672,0.80163 4.27209,1.24747 1.44537,0.44585 2.91231,0.92212 4.4018,1.42989 1.48949,0.50777 3.00144,1.04708 4.53668,1.61902 1.53523,0.57194 3.09357,1.17652 4.67619,1.81488 1.42656,0.57541 2.87968,1.18738 4.34599,1.81849 v -15.03474 z" />
    <path
       id="rect11917-0-02"
       style="fill:#ffddd2;fill-opacity:0.713725;fill-rule:evenodd;stroke-width:1;stroke-linejoin:round;paint-order:stroke fill markers"
       d="m 204.64443,440.63918 c -1.46631,-0.63111 -2.91943,-1.24308 -4.34599,-1.81849 -1.58262,-0.63836 -3.14096,-1.24294 -4.67619,-1.81488 -1.53524,-0.57194 -3.04719,-1.11125 -4.53668,-1.61902 -1.48949,-0.50777 -2.95643,-0.98404 -4.4018,-1.42989 -1.44537,-0.44584 -2.8692,-0.8613 -4.27209,-1.24747 -1.40289,-0.38617 -2.785,-0.74303 -4.14703,-1.07177 -1.36203,-0.32873 -2.70382,-0.62924 -4.02663,-0.90278 -1.32281,-0.27355 -2.62669,-0.52044 -3.91191,-0.74104 -1.28521,-0.2206 -2.55206,-0.41508 -3.80131,-0.58498 -1.24927,-0.1699 -2.48046,-0.31522 -3.69539,-0.43667 -1.21492,-0.12144 -2.41341,-0.21931 -3.59564,-0.29455 -2.36446,-0.15048 -4.66517,-0.21054 -6.90862,-0.18965 -2.24346,0.0209 -4.42948,0.12285 -6.56498,0.29713 -2.13551,0.17429 -4.22051,0.42099 -6.26112,0.73071 -2.0406,0.30972 -4.03673,0.68229 -5.99549,1.10949 -1.95878,0.4272 -3.88024,0.90886 -5.7702,1.43557 -1.88997,0.52672 -3.74839,1.09861 -5.5826,1.70688 -1.83423,0.60826 -3.64431,1.25308 -5.43586,1.92494 -1.79152,0.67186 -3.5649,1.37076 -5.32679,2.08825 -3.52379,1.43498 -7.0011,2.94323 -10.48463,4.45296 -3.483536,1.50972 -6.973123,3.02096 -10.520812,4.46174 -1.773851,0.72039 -3.5623,1.4234 -5.371769,2.09961 -1.809462,0.67621 -3.63972,1.32586 -5.497852,1.93994 -1.858134,0.61407 -3.743883,1.19254 -5.663737,1.72651 -1.919856,0.53397 -3.874267,1.02343 -5.868892,1.45934 -1.994625,0.43591 -4.029837,0.81803 -6.11229,1.13791 -2.082451,0.31988 -4.212146,0.57737 -6.395474,0.76326 -2.183326,0.1859 -4.420166,0.30041 -6.717422,0.33435 -2.297252,0.0339 -4.65492,-0.0129 -7.079154,-0.14883 -1.212115,-0.068 -2.440805,-0.15799 -3.687112,-0.27182 -1.246309,-0.11383 -2.509885,-0.25149 -3.792016,-0.41341 -1.282131,-0.16192 -2.582503,-0.34843 -3.902088,-0.56069 -1.319586,-0.21225 -2.658656,-0.44984 -4.017325,-0.71468 -1.358673,-0.26484 -2.737311,-0.55677 -4.1367,-0.87643 -1.399389,-0.31967 -2.819499,-0.66713 -4.261239,-1.04387 -1.441737,-0.37673 -2.904709,-0.78248 -4.39043,-1.21853 -1.485719,-0.43605 -2.993973,-0.9023 -4.5253047,-1.39991 -1.531331,-0.49762 -3.08574,-1.0266 -4.6643148,-1.58802 -1.578574,-0.56142 -3.1815593,-1.15536 -4.80900816,-1.78284 -1.49817804,-0.57763 -3.02262204,-1.19132 -4.56354604,-1.82676 V 459.6158 H 204.64443 Z" />
    <path
       id="path11979-9-3"
       style="fill:#e29578;fill-opacity:0.713725;fill-rule:evenodd;stroke-width:1;stroke-linejoin:round;paint-order:stroke fill markers"
       d="m -5.0730057,425.60444 v 18.70635 c 1.540924,0.63544 3.065368,1.24913 4.56354604,1.82676 1.62744886,0.62748 3.23043416,1.22142 4.80900816,1.78284 1.5785748,0.56142 3.1329838,1.0904 4.6643148,1.58802 1.5313317,0.49761 3.0395857,0.96386 4.5253047,1.39991 1.485721,0.43605 2.948693,0.8418 4.39043,1.21853 1.44174,0.37674 2.86185,0.7242 4.261239,1.04387 1.399389,0.31966 2.778027,0.61159 4.1367,0.87643 1.358669,0.26484 2.697739,0.50243 4.017325,0.71468 1.319585,0.21226 2.619957,0.39877 3.902088,0.56069 1.282131,0.16192 2.545707,0.29958 3.792016,0.41341 1.246307,0.11383 2.474997,0.20384 3.687112,0.27182 2.424234,0.13597 4.781902,0.18278 7.079154,0.14883 2.297256,-0.0339 4.534096,-0.14845 6.717422,-0.33435 2.183328,-0.18589 4.313023,-0.44338 6.395474,-0.76326 2.082453,-0.31988 4.117665,-0.702 6.11229,-1.13791 1.994625,-0.43591 3.949036,-0.92537 5.868892,-1.45934 1.919854,-0.53397 3.805603,-1.11244 5.663737,-1.72651 1.858132,-0.61408 3.68839,-1.26373 5.497852,-1.93994 1.809469,-0.67621 3.597918,-1.37922 5.371769,-2.09961 3.547689,-1.44078 7.037276,-2.95202 10.520812,-4.46174 3.48353,-1.50973 6.96084,-3.01798 10.48463,-4.45296 1.76189,-0.71749 3.53527,-1.41639 5.32679,-2.08825 1.79155,-0.67186 3.60163,-1.31668 5.43586,-1.92494 1.83421,-0.60827 3.69263,-1.18016 5.5826,-1.70688 1.88996,-0.52671 3.81142,-1.00837 5.7702,-1.43557 1.95876,-0.4272 3.95489,-0.79977 5.99549,-1.10949 2.04061,-0.30972 4.12561,-0.55642 6.26112,-0.73071 2.1355,-0.17428 4.32152,-0.27625 6.56498,-0.29713 2.24345,-0.0209 4.54416,0.0392 6.90862,0.18965 1.18223,0.0752 2.38072,0.17311 3.59564,0.29455 1.21493,0.12145 2.44612,0.26677 3.69539,0.43667 1.24925,0.1699 2.5161,0.36438 3.80131,0.58498 1.28522,0.2206 2.5891,0.46749 3.91191,0.74104 1.32281,0.27354 2.6646,0.57405 4.02663,0.90278 1.36203,0.32874 2.74414,0.6856 4.14703,1.07177 1.40289,0.38617 2.82672,0.80163 4.27209,1.24747 1.44537,0.44585 2.91231,0.92212 4.4018,1.42989 1.48949,0.50777 3.00144,1.04708 4.53668,1.61902 1.53523,0.57194 3.09357,1.17652 4.67619,1.81488 1.42656,0.57541 2.87968,1.18738 4.34599,1.81849 v -15.03474 z" />
    <path
       id="rect11917-0-7"
       style="fill:#ffddd2;fill-opacity:0.713725;fill-rule:evenodd;stroke-width:1;stroke-linejoin:round;paint-order:stroke fill markers"
       d="m 200.10872,397.17192 c -1.46631,-0.63111 -2.91943,-1.24308 -4.34599,-1.81849 -1.58262,-0.63836 -3.14096,-1.24294 -4.67619,-1.81488 -1.53524,-0.57194 -3.04719,-1.11125 -4.53668,-1.61902 -1.48949,-0.50777 -2.95643,-0.98404 -4.4018,-1.42989 -1.44537,-0.44585 -2.8692,-0.8613 -4.27209,-1.24747 -1.40289,-0.38617 -2.785,-0.74303 -4.14703,-1.07177 -1.36203,-0.32873 -2.70382,-0.62924 -4.02663,-0.90279 -1.32281,-0.27354 -2.62669,-0.52043 -3.91191,-0.74104 -1.28521,-0.22059 -2.55206,-0.41507 -3.80131,-0.58497 -1.24927,-0.1699 -2.48046,-0.31522 -3.69539,-0.43667 -1.21492,-0.12145 -2.41341,-0.21932 -3.59564,-0.29455 -2.36446,-0.15048 -4.66517,-0.21054 -6.90862,-0.18966 -2.24346,0.0209 -4.42948,0.12286 -6.56498,0.29714 -2.13551,0.17429 -4.22051,0.42099 -6.26112,0.73071 -2.0406,0.30972 -4.03673,0.68229 -5.99549,1.10949 -1.95878,0.4272 -3.88024,0.90886 -5.7702,1.43557 -1.88997,0.52672 -3.74839,1.09861 -5.5826,1.70687 -1.83423,0.60827 -3.64431,1.25309 -5.43586,1.92495 -1.79152,0.67186 -3.5649,1.37076 -5.32679,2.08825 -3.52379,1.43498 -7.0011,2.94323 -10.48463,4.45296 -3.48354,1.50972 -6.973127,3.02096 -10.520816,4.46174 -1.773851,0.72039 -3.5623,1.4234 -5.371769,2.09961 -1.809462,0.67621 -3.63972,1.32586 -5.497852,1.93994 -1.858134,0.61407 -3.743883,1.19254 -5.663737,1.72651 -1.919856,0.53396 -3.874267,1.02343 -5.868892,1.45934 -1.994625,0.43591 -4.029837,0.81803 -6.11229,1.13791 -2.082451,0.31988 -4.212146,0.57736 -6.395474,0.76326 -2.183326,0.18589 -4.420166,0.30041 -6.717422,0.33435 -2.297252,0.0339 -4.65492,-0.0129 -7.079154,-0.14883 -1.212115,-0.068 -2.440805,-0.15799 -3.687112,-0.27182 -1.246309,-0.11384 -2.509885,-0.2515 -3.792016,-0.41341 -1.282131,-0.16192 -2.582503,-0.34843 -3.902088,-0.56069 -1.319586,-0.21226 -2.658656,-0.44984 -4.017325,-0.71468 -1.358673,-0.26484 -2.737311,-0.55677 -4.1367,-0.87644 -1.399389,-0.31967 -2.819499,-0.66712 -4.261239,-1.04386 -1.441737,-0.37673 -2.904709,-0.78248 -4.3904299,-1.21853 -1.485719,-0.43605 -2.993973,-0.9023 -4.525305,-1.39991 -1.531331,-0.49762 -3.08574,-1.0266 -4.66431485,-1.58802 -1.57857395,-0.56142 -3.18155925,-1.15536 -4.80900815,-1.78284 -1.498178,-0.57763 -3.022622,-1.19132 -4.563546,-1.82676 v 15.30501 H 200.10872 Z" />
    <path
       id="path11979-9-5"
       style="fill:#e29578;fill-opacity:0.713725;fill-rule:evenodd;stroke-width:1;stroke-linejoin:round;paint-order:stroke fill markers"
       d="m -9.6087199,382.13718 v 18.70635 c 1.540924,0.63544 3.065368,1.24913 4.563546,1.82676 1.6274489,0.62748 3.2304342,1.22142 4.80900815,1.78284 1.57857485,0.56142 3.13298385,1.0904 4.66431485,1.58802 1.531332,0.49761 3.039586,0.96386 4.525305,1.39991 1.4857209,0.43605 2.9486929,0.8418 4.3904299,1.21853 1.44174,0.37674 2.86185,0.72419 4.261239,1.04386 1.399389,0.31967 2.778027,0.6116 4.1367,0.87644 1.358669,0.26484 2.697739,0.50242 4.017325,0.71468 1.319585,0.21226 2.619957,0.39877 3.902088,0.56069 1.282131,0.16191 2.545707,0.29957 3.792016,0.41341 1.246307,0.11383 2.474997,0.20384 3.687112,0.27182 2.424234,0.13597 4.781902,0.18278 7.079154,0.14883 2.297256,-0.0339 4.534096,-0.14846 6.717422,-0.33435 2.183328,-0.1859 4.313023,-0.44338 6.395474,-0.76326 2.082453,-0.31988 4.117665,-0.702 6.11229,-1.13791 1.994625,-0.43591 3.949036,-0.92538 5.868892,-1.45934 1.919854,-0.53397 3.805603,-1.11244 5.663737,-1.72651 1.858132,-0.61408 3.68839,-1.26373 5.497852,-1.93994 1.809469,-0.67621 3.597918,-1.37922 5.371769,-2.09961 3.547689,-1.44078 7.037276,-2.95202 10.520816,-4.46174 3.48353,-1.50973 6.96084,-3.01798 10.48463,-4.45296 1.76189,-0.71749 3.53527,-1.41639 5.32679,-2.08825 1.79155,-0.67186 3.60163,-1.31668 5.43586,-1.92495 1.83421,-0.60826 3.69263,-1.18015 5.5826,-1.70687 1.88996,-0.52671 3.81142,-1.00837 5.7702,-1.43557 1.95876,-0.4272 3.95489,-0.79977 5.99549,-1.10949 2.04061,-0.30972 4.12561,-0.55642 6.26112,-0.73071 2.1355,-0.17428 4.32152,-0.27625 6.56498,-0.29714 2.24345,-0.0209 4.54416,0.0392 6.90862,0.18966 1.18223,0.0752 2.38072,0.1731 3.59564,0.29455 1.21493,0.12145 2.44612,0.26677 3.69539,0.43667 1.24925,0.1699 2.5161,0.36438 3.80131,0.58497 1.28522,0.22061 2.5891,0.4675 3.91191,0.74104 1.32281,0.27355 2.6646,0.57406 4.02663,0.90279 1.36203,0.32874 2.74414,0.6856 4.14703,1.07177 1.40289,0.38617 2.82672,0.80162 4.27209,1.24747 1.44537,0.44585 2.91231,0.92212 4.4018,1.42989 1.48949,0.50777 3.00144,1.04708 4.53668,1.61902 1.53523,0.57194 3.09357,1.17652 4.67619,1.81488 1.42656,0.57541 2.87968,1.18738 4.34599,1.81849 v -15.03474 z" />
  </g>
</svg>
